<svg width="24" height="24" viewBox="0 0 24 24" fill="none" xmlns="http://www.w3.org/2000/svg" preserveAspectRatio="xMinYMid meet"><path d="M5.478 5.004a1.5 1.5 0 0 0-1.5 1.51l.073 10.992a1.5 1.5 0 0 0 1.5 1.49h12.977a1.5 1.5 0 0 0 1.5-1.5v-7.008a1.5 1.5 0 0 0-1.5-1.5h-4.569a2.5 2.5 0 0 1-1.997-.996l-1.8-2.39a1.5 1.5 0 0 0-1.198-.598H5.479zm-2.5 1.516a2.5 2.5 0 0 1 2.5-2.517h3.485a2.5 2.5 0 0 1 1.997.996h7.571a2.5 2.5 0 0 1 2.5 2.5v3a.444.444 0 0 1-.004.063v6.934a2.5 2.5 0 0 1-2.5 2.5H5.551a2.5 2.5 0 0 1-2.5-2.483L2.978 6.521zm9.782.87L11.713 6h6.819a1.5 1.5 0 0 1 1.5 1.5v.991a2.487 2.487 0 0 0-1.504-.503h-4.569c-.471 0-.915-.221-1.198-.598z" fill="#212529" fill-rule="evenodd"/><path d="M10.409 10.248a.9.9 0 0 1 .9-.899h1.079c.695 0 1.281.416 1.614.98.339-.565.933-.98 1.626-.98h1.084a.9.9 0 0 1 .9.901v.301h.883a.9.9 0 0 1 .9.899l.004 5.998a.9.9 0 0 1-.9.901h-3.415c-.054 0-.108-.002-.161-.004a2.286 2.286 0 0 0-.368.008c-.183.024-.259.078-.29.136a.299.299 0 0 1-.529.003c-.032-.06-.111-.114-.292-.138a2.24 2.24 0 0 0-.373-.01 3.853 3.853 0 0 1-.152.003h-2.161l-1.263-.006a.9.9 0 0 1-.896-.9v-5.997a.9.9 0 0 1 .905-.9l.904.005v-.301zm-.001.901l-.907-.005a.301.301 0 0 0-.302.3v5.997a.3.3 0 0 0 .299.3l1.262.006h2.16c.022 0 .052 0 .088-.002.128-.004.332-.011.517.014l.041.006a.792.792 0 0 0-.212-.216c-.226-.159-.563-.249-.973-.249h-1.078a.9.9 0 0 1-.9-.901l.006-5.251zm4.028 6.615l.042-.006c.183-.024.389-.016.517-.012l.09.002H18.5a.3.3 0 0 0 .3-.3l-.004-5.998a.3.3 0 0 0-.3-.3h-.884l-.006 5.252a.9.9 0 0 1-.9.899H15.62c-.41 0-.747.09-.973.249a.822.822 0 0 0-.211.213zm2.576-6.98a.293.293 0 0 0 0 .133l-.007 5.486a.3.3 0 0 1-.3.3h-1.086c-.485 0-.958.104-1.318.358h-.002v-5.676c0-.738.625-1.435 1.329-1.435h1.084a.3.3 0 0 1 .3.3v.535zm-3.312.6c0-.743-.612-1.435-1.311-1.435H11.31a.3.3 0 0 0-.3.3l-.007 6.153a.3.3 0 0 0 .3.3h1.078c.485 0 .958.104 1.318.358h.002v-5.676z" fill="#212529" fill-rule="evenodd" stroke="#212529" stroke-miterlimit="10" stroke-width=".55"/></svg>
